# xmcd
#
# Track frame offsets:
#	150
#	15424
#	30986
#	50615
#	67920
#	84342
#	99425
#	112547
#	130207
#	144273
#	160943
#	175916
#
# Disc length: 2542 seconds
#
# Revision: 1
# Processed by: cddbd v1.5.2PL0 Copyright (c) Steve Scherf et al.
# Submitted via: audiograbber 1.83.01
#
DISCID=8309ec0c
DTITLE=Ashley Cook - Keeping The Past Alive
DYEAR=2019
DGENRE=Country
TTITLE0=The Murranji
TTITLE1=Two Day Course
TTITLE2=The Five Stars
TTITLE3=Blood On The Coal
TTITLE4=Petticoat Pioneers
TTITLE5=I Am Me
TTITLE6=Out At The Back Of Bourke
TTITLE7=Rocky On The Fitzroy
TTITLE8=Jesus Take A Hold
TTITLE9=Gracemere Cattle Yards
TTITLE10=The Land He Calls His Own
TTITLE11=Keeping The Past Alive
EXTD=
EXTT0=
EXTT1=
EXTT2=
EXTT3=
EXTT4=
EXTT5=
EXTT6=
EXTT7=
EXTT8=
EXTT9=
EXTT10=
EXTT11=
PLAYORDER=
